<svg version="1.0" xmlns="http://www.w3.org/2000/svg"
 width="200.000000pt" height="200.000000pt" viewBox="0 0 200.000000 200.000000"
 preserveAspectRatio="xMidYMid meet">
<metadata>
Created by potrace 1.16, written by Peter Selinger 2001-2019
</metadata>
<g transform="translate(0.000000,200.000000) scale(0.100000,-0.100000)"
fill="#000000" stroke="none">
<path id="path-1" d="M820 1956 c-207 -44 -415 -165 -534 -311 -48 -60 -54 -73 -34 -93 22
-22 38 -12 121 72 138 141 292 225 476 260 155 30 288 18 454 -38 135 -46 242
-113 356 -223 l96 -92 -57 -1 c-57 0 -58 0 -58 -29 0 -37 12 -41 115 -41 73 0
86 3 95 19 13 25 13 147 0 172 -16 29 -58 25 -66 -6 -6 -25 -8 -25 -73 38
-117 113 -277 205 -438 253 -74 23 -111 27 -238 30 -101 2 -171 -1 -215 -10z"/>
<path id="path-2" d="M902 1658 c-7 -7 -12 -39 -12 -73 l0 -62 -42 -12 c-24 -7 -62 -23
-85 -36 l-41 -23 -43 44 c-24 24 -50 44 -59 44 -20 0 -150 -131 -150 -151 0
-8 20 -34 44 -58 l44 -43 -18 -32 c-10 -17 -26 -55 -35 -83 l-17 -53 -53 0
c-87 0 -85 3 -85 -121 l0 -109 68 0 69 0 12 -42 c7 -24 23 -64 36 -89 l23 -47
-44 -43 c-24 -24 -44 -50 -44 -59 0 -20 131 -150 151 -150 8 0 34 20 58 44
l43 44 32 -18 c17 -10 55 -26 84 -35 l52 -17 0 -62 c0 -35 5 -67 12 -74 8 -8
46 -12 103 -12 57 0 95 4 103 12 7 7 12 39 12 74 0 59 1 62 28 69 15 3 53 18
84 32 l58 26 45 -42 c24 -22 50 -41 58 -41 19 0 147 133 147 153 0 10 -18 37
-41 61 l-40 45 22 43 c12 24 28 61 34 83 l12 40 69 5 69 5 3 99 c2 64 -1 103
-9 112 -8 9 -33 14 -75 14 -53 0 -64 3 -64 17 0 9 -14 47 -32 85 l-31 69 41
42 c23 24 42 50 42 58 0 23 -108 138 -137 145 -20 5 -33 -2 -68 -36 l-44 -43
-58 26 c-32 14 -70 29 -85 32 -27 7 -28 9 -28 75 0 53 -4 69 -16 74 -29 11
-189 7 -202 -6z m148 -123 c0 -68 12 -85 58 -85 11 0 56 -18 100 -40 44 -22
86 -40 93 -40 7 0 32 18 54 40 l41 40 29 -30 29 -30 -42 -43 c-23 -24 -42 -48
-42 -55 0 -7 11 -30 25 -52 14 -22 35 -70 47 -107 12 -38 26 -74 31 -80 6 -8
33 -13 68 -13 l59 0 0 -40 0 -40 -57 0 c-32 0 -63 -4 -69 -8 -6 -4 -16 -29
-23 -57 -7 -27 -28 -79 -47 -115 -19 -35 -34 -69 -34 -74 0 -6 19 -29 42 -53
l42 -43 -29 -30 -29 -30 -41 40 c-22 22 -48 40 -56 40 -9 0 -46 -16 -82 -35
-37 -18 -84 -37 -104 -41 -56 -10 -63 -19 -63 -85 l0 -59 -45 0 -45 0 0 65 c0
62 -1 65 -27 71 -63 14 -121 36 -155 59 -50 34 -75 32 -120 -12 l-38 -37 -27
27 -27 27 37 38 c43 44 46 69 13 120 -14 20 -32 62 -41 92 -31 104 -27 100
-95 100 l-60 0 0 40 0 40 53 0 c66 0 76 7 88 61 6 24 25 75 44 112 19 38 35
76 35 85 0 9 -17 33 -37 54 l-37 38 27 27 27 27 38 -37 c21 -20 46 -37 55 -37
10 0 41 13 70 29 28 17 80 38 115 47 l62 17 0 69 0 68 45 0 45 0 0 -65z"/>
<path id="path-3" d="M916 1256 c-136 -51 -208 -205 -161 -347 38 -115 159 -190 282 -175
71 8 122 35 170 90 47 53 63 101 63 187 -1 103 -51 184 -144 231 -52 27 -157
34 -210 14z m193 -94 c118 -72 121 -242 5 -321 -78 -54 -169 -45 -239 23 -85
81 -83 197 3 279 65 62 150 69 231 19z"/>
<path id="path-4" d="M105 1382 c-58 -30 -71 -42 -73 -65 -4 -33 18 -45 54 -29 30 14 30
15 -3 -83 -24 -72 -27 -94 -27 -220 1 -167 20 -249 90 -395 143 -299 421 -499
749 -539 122 -15 161 -14 179 5 20 19 20 29 2 47 -10 10 -49 16 -123 20 -387
20 -715 301 -809 693 -26 106 -23 252 5 349 31 109 36 116 52 82 15 -33 46
-44 67 -23 13 13 14 21 3 54 -20 61 -64 136 -81 139 -8 2 -46 -14 -85 -35z"/>
<path id="path-5" d="M1850 1365 c-10 -13 -9 -29 8 -88 30 -102 42 -179 42 -263 0 -306
-194 -620 -481 -778 l-64 -35 0 32 c0 27 -4 32 -26 35 -21 2 -31 -6 -61 -50
-73 -111 -73 -115 20 -158 81 -38 116 -37 120 3 3 23 -2 29 -28 39 l-32 11 78
41 c149 78 256 168 354 297 185 247 238 547 149 850 -22 76 -50 99 -79 64z"/>
</g>
</svg>
